#!OML:ASF H:\Terrain\Patient Classification 1\Walking\steve\steve.ASF
:FULLY-SPECIFIED
:DEGREES
250
root 10.1935 16.2425 23.5435 4.50775 2.91151 0.209034
lowerback 3.21438 0.260575 1.78061
upperback -1.97872 0.501662 1.84231
thorax -3.84338 0.22896 0.867767
lowerneck -10.2998 -1.06884 -1.99657
upperneck 11.2039 -1.26494 1.03891
head 5.07776 -0.633946 0.555586
rclavicle 9.96408e-015 -2.78299e-014
rhumerus -71.3702 -32.7474 -39.7986
rradius 13.9422
rwrist 31.8416
rhand -18.6275 -39.2804
rfingers 7.12502
rthumb 7.66468 -69.1216
lclavicle 9.96408e-015 -2.78299e-014
lhumerus -15.5868 -10.2669 87.4845
lradius 64.9422
lwrist 25.553
lhand -30.249 -18.4101
lfingers 7.12502
lthumb -3.55791 11.5399
rfemur -37.4814 2.01793 24.6145
rtibia 43.4306
rfoot -9.88918 6.59082
rtoes 1.70647
lfemur 1.82627 0.497344 -21.2197
ltibia 59.1789
lfoot 21.1392 23.2771
ltoes 20.1308
251
root 10.1817 16.2946 23.7949 4.60212 3.13445 -0.128459
lowerback 3.03472 0.372747 1.84893
upperback -2.00536 0.654406 1.97066
thorax -3.7707 0.305378 0.953025
lowerneck -10.3687 -1.46233 -2.83061
upperneck 11.5467 -1.76856 1.81561
head 5.21824 -0.863891 0.895085
rclavicle -1.70706e-014 -1.59028e-014
rhumerus -68.7882 -32.6454 -43.3015
rradius 14.4574
rwrist 29.7726
rhand -17.6042 -38.6073
rfingers 7.12502
rthumb 8.65234 -68.41
lclavicle -1.70706e-014 -1.59028e-014
lhumerus -16.4997 -10.705 88.2653
lradius 63.03
lwrist 25.3593
lhand -30.3856 -18.3962
lfingers 7.12502
lthumb -3.68986 11.5516
rfemur -36.3128 1.81266 25.209
rtibia 42.943
rfoot -10.8283 6.45372
rtoes -1.13877
lfemur -0.688633 0.445857 -20.4367
ltibia 62.647
lfoot 21.1152 20.1552
ltoes 18.9298
252
root 10.179 16.3433 24.047 4.74786 3.25834 -0.839188
lowerback 2.82172 0.577524 2.47831
upperback -2.12649 0.957836 2.11158
thorax -3.77017 0.441669 0.729039
lowerneck -10.0014 -1.71244 -3.35257
upperneck 11.6256 -2.12112 2.44626
head 5.20167 -1.01837 1.15261
rclavicle 7.25564e-015 -7.15625e-015
rhumerus -66.962 -33.0617 -45.3145
rradius 14.7849
rwrist 29.2444
rhand -16.8863 -37.8532
rfingers 7.12502
rthumb 9.34503 -67.6261
lclavicle 7.25564e-015 -7.15625e-015
lhumerus -17.5976 -11.1255 89.1067
lradius 61.1216
lwrist 25.0468
lhand -29.7412 -17.7522
lfingers 7.12502
lthumb -3.06755 12.2055
rfemur -35.1067 1.58904 26.1984
rtibia 42.3692
rfoot -11.6464 6.51955
rtoes -3.4307
lfemur -3.26281 0.490454 -19.278
ltibia 65.8182
lfoot 20.5421 17.4992
ltoes 17.1189
253
root 10.1792 16.3972 24.2891 5.00553 3.22084 -1.45638
lowerback 2.73267 0.80769 3.0477
upperback -2.39287 1.29971 2.19188
thorax -3.98536 0.594143 0.473339
lowerneck -9.79414 -1.77093 -3.38625
upperneck 12.0858 -2.23826 2.66386
head 5.31599 -1.06387 1.21851
rclavicle 1.34055e-014 5.56597e-015
rhumerus -65.2939 -33.5034 -46.8526
rradius 14.8806
rwrist 29.282
rhand -16.6146 -37.4751
rfingers 7.12502
rthumb 9.60716 -67.2361
lclavicle 1.34055e-014 5.56597e-015
lhumerus -18.9412 -11.2651 89.9125
lradius 59.2407
lwrist 24.6122
lhand -29.0191 -17.4856
lfingers 7.12502
lthumb -2.37013 12.481
rfemur -34.0371 1.65053 26.9609
rtibia 41.7785
rfoot -12.191 6.74832
rtoes -3.15514
lfemur -5.98051 0.764523 -18.2804
ltibia 68.6082
lfoot 19.8964 14.5931
ltoes 12.5117
254
root 10.1776 16.4503 24.5262 5.21464 3.10435 -1.58138
lowerback 2.70265 0.96502 3.04299
upperback -2.62111 1.51539 2.14719
thorax -4.20168 0.697212 0.416047
lowerneck -9.70481 -1.84812 -3.34097
upperneck 12.8103 -2.37178 2.71115
head 5.53087 -1.12407 1.21618
rclavicle -1.41758e-014 -3.18055e-015
rhumerus -62.3372 -32.672 -50.6805
rradius 15.3056
rwrist 27.2158
rhand -16.0027 -37.1648
rfingers 7.12502
rthumb 10.1976 -66.8977
lclavicle -1.41758e-014 -3.18055e-015
lhumerus -20.222 -11.2632 90.4852
lradius 57.0666
lwrist 24.2476
lhand -28.6541 -17.5888
lfingers 7.12502
lthumb -2.01767 12.3814
rfemur -32.967 1.71267 27.1768
rtibia 41.2379
rfoot -12.7931 6.9699
rtoes -3.05003
lfemur -8.4048 1.14139 -17.9266
ltibia 70.8573
lfoot 18.9406 12.0229
ltoes 7.35107
255
root 10.1769 16.5044 24.7698 5.48646 3.10237 -1.41628
lowerback 1.93139 1.04641 2.73139
upperback -2.3952 1.56381 2.05068
thorax -3.53381 0.737194 0.503692
lowerneck -9.94473 -1.96267 -3.37357
upperneck 12.934 -2.53799 2.85782
head 5.61788 -1.19404 1.2527
rclavicle 6.07536e-015 1.35174e-014
rhumerus -58.878 -32.4385 -54.2027
rradius 15.5912
rwrist 25.9482
rhand -15.2965 -36.1557
rfingers 7.12502
rthumb 10.8788 -65.8539
lclavicle 6.07536e-015 1.35174e-014
lhumerus -20.7499 -11.3378 90.8448
lradius 54.6316
lwrist 24.0356
lhand -28.4884 -17.6981
lfingers 7.12502
lthumb -1.85765 12.2735
rfemur -31.9985 1.60318 27.0717
rtibia 40.7803
rfoot -13.5756 7.27743
rtoes -3.35552
lfemur -10.7134 1.32455 -17.9554
ltibia 72.6383
lfoot 17.4693 10.3902
ltoes 4.46971
256
root 10.1803 16.5508 25.022 5.64869 3.12905 -1.30949
lowerback 2.54452 1.20023 2.82659
upperback -3.25366 1.8191 1.74694
thorax -4.7595 0.838317 0.102767
lowerneck -8.99754 -2.06294 -3.41877
upperneck 13.6492 -2.73755 3.04051
head 5.68934 -1.28724 1.30959
rclavicle -1.08182e-014 -3.33958e-014
rhumerus -57.7506 -31.5274 -56.4025
rradius 16.007
rwrist 25.3009
rhand -15.1003 -35.2953
rfingers 7.12502
rthumb 11.068 -64.9835
lclavicle -1.08182e-014 -3.33958e-014
lhumerus -23.3064 -11.9168 91.5177
lradius 52.4079
lwrist 24.0009
lhand -28.3263 -17.836
lfingers 7.12502
lthumb -1.70109 12.137
rfemur -30.8041 1.55361 26.9857
rtibia 40.3417
rfoot -14.4285 7.57813
rtoes -3.22384
lfemur -12.7725 1.56572 -17.9712
ltibia 74.0542
lfoot 15.5254 9.22361
ltoes 1.68612
257
root 10.1903 16.59 25.2735 5.57114 3.04481 -1.21924
lowerback 1.95888 1.19418 2.44418
upperback -2.95631 1.7657 1.8973
thorax -4.13271 0.835601 0.490443
lowerneck -9.04703 -1.77649 -3.08574
upperneck 13.9998 -2.30666 2.40082
head 5.78216 -1.10594 1.08646
rclavicle 1.66544e-014 1.11319e-014
rhumerus -54.5468 -31.267 -58.7325
rradius 16.2308
rwrist 25.2419
rhand -15.2254 -35.3343
rfingers 7.12502
rthumb 10.9473 -65.0289
lclavicle 1.66544e-014 1.11319e-014
lhumerus -24.1169 -11.5335 92.1308
lradius 49.9408
lwrist 23.9423
lhand -28.1707 -17.8414
lfingers 7.12502
lthumb -1.55081 12.1327
rfemur -29.2913 1.37745 26.9321
rtibia 39.8219
rfoot -15.2078 7.91419
rtoes -4.03844
lfemur -14.4259 1.96718 -18.0776
ltibia 75.1084
lfoot 13.5243 8.21019
ltoes -2.93201
258
root 10.1956 16.6464 25.5161 5.55395 2.89514 -1.14008
lowerback 1.76058 1.29139 2.17334
upperback -2.85818 1.87606 1.94147
thorax -3.927 0.9018 0.686954
lowerneck -9.43712 -1.99109 -3.82896
upperneck 14.6144 -2.56162 2.91348
head 6.06642 -1.22816 1.34738
rclavicle -2.64011e-015 -2.3059e-014
rhumerus -51.6226 -30.9794 -60.9565
rradius 16.5958
rwrist 24.7058
rhand -14.5359 -36.2075
rfingers 7.12502
rthumb 11.6124 -65.8658
lclavicle -2.64011e-015 -2.3059e-014
lhumerus -25.1029 -11.1408 92.7086
lradius 47.434
lwrist 23.4756
lhand -27.9476 -17.6251
lfingers 7.12502
lthumb -1.33533 12.3504
rfemur -27.9493 1.25268 26.8941
rtibia 39.1624
rfoot -15.8167 8.18562
rtoes -5.06656
lfemur -16.3598 2.27644 -18.1216
ltibia 76.0445
lfoot 11.4707 7.68822
ltoes -5.45594
259
root 10.1944 16.6999 25.7576 5.55948 2.68302 -1.25673
lowerback 1.48676 1.41731 2.09619
upperback -2.70734 2.0281 1.98298
thorax -3.61916 0.9833 0.774031
lowerneck -9.71721 -2.09112 -4.07642
upperneck 15.0232 -2.67858 3.05604
head 6.25371 -1.28519 1.42177
rclavicle 1.58966e-014 7.95139e-016
rhumerus -48.5886 -30.1886 -63.7169
rradius 17.0333
rwrist 24.2757
rhand -12.6274 -37.0176
rfingers 7.12502
rthumb 13.4523 -66.5632
lclavicle 1.58966e-014 7.95139e-016
lhumerus -25.9902 -10.6709 93.1085
lradius 44.8478
lwrist 22.7166
lhand -27.7218 -17.5256
lfingers 7.12502
lthumb -1.11722 12.4512
rfemur -26.6212 1.55706 27.0233
rtibia 38.4088
rfoot -16.3544 8.28173
rtoes -4.68391
lfemur -18.3697 2.55433 -17.8757
ltibia 76.5935
lfoot 9.71165 7.36704
ltoes -6.17785
260
root 10.1991 16.7358 25.9995 5.61071 2.4844 -1.45157
lowerback 0.874638 1.48324 2.15795
upperback -2.43955 2.08771 2.02185
thorax -2.9956 1.01745 0.797113
lowerneck -9.96217 -2.04835 -3.79221
upperneck 15.3321 -2.598 2.66021
head 6.38252 -1.25946 1.25382
rclavicle 2.8861e-014 -1.82882e-014
rhumerus -45.337 -28.5555 -67.1228
rradius 17.9021
rwrist 23.0278
rhand -12.7622 -37.5506
rfingers 7.12502
rthumb 13.3224 -67.1047
lclavicle 2.8861e-014 -1.82882e-014
lhumerus -26.7703 -10.2038 93.3551
lradius 42.21
lwrist 21.9221
lhand -27.4882 -17.3465
lfingers 7.12502
lthumb -0.891589 12.6314
rfemur -25.2577 1.8367 27.224
rtibia 37.5598
rfoot -16.8158 8.28451
rtoes -5.22716
lfemur -20.1989 2.86695 -17.6518
ltibia 76.9235
lfoot 7.50136 6.88164
ltoes -5.90394
261
root 10.2094 16.7598 26.2314 5.82051 2.33826 -1.85478
lowerback 0.650033 1.57346 2.55072
upperback -2.55153 2.21318 2.06584
thorax -2.97226 1.07111 0.624095
lowerneck -9.99799 -2.01935 -3.61412
upperneck 15.7734 -2.55737 2.44297
head 6.52288 -1.24696 1.15841
rclavicle -1.69029e-014 -2.14687e-014
rhumerus -42.6872 -26.1123 -70.3858
rradius 19.154
rwrist 20.3365
rhand -16.5817 -38.0842
rfingers 7.12502
rthumb 9.63899 -67.8437
lclavicle -1.69029e-014 -2.14687e-014
lhumerus -27.9271 -9.58187 93.6076
lradius 39.463
lwrist 20.8809
lhand -27.2031 -17.1934
lfingers 7.12502
lthumb -0.616268 12.7854
rfemur -24.1035 2.04993 27.658
rtibia 36.6548
rfoot -16.9853 8.30401
rtoes -5.43963
lfemur -22.2525 3.25912 -17.2919
ltibia 77.0679
lfoot 5.5338 5.89594
ltoes -7.84333
